# File created by Blade
# Date/Time:  Tue Jan 27 18:01:49 2015
# Frame Rate: 120.000 fps
#------------------------------------------------------
:FULLY-SPECIFIED
:DEGREES
1712
root -1.467887 31.925651 -5.815542 8.385539 24.813027 5.609132
Spine -7.659107 -2.872470 -3.787983
Head 2.453946 -15.612733 -2.073958
LeftShoulder -10.163189 14.472160 7.307006
LeftArm 26.311382 42.751780 -71.276281
LeftForeArm -2.887467 -0.000000 12.017766
LeftHand -11.310408 -0.000000 -7.584051
LeftHandThumb1 -26.253704 0.000000 33.147579
RightShoulder -6.755937 37.999832 -50.158600
RightArm 86.866027 48.200941 119.535839
RightForeArm 36.877644 -0.000000 114.054697
RightHand 0.072407 -0.000000 10.416393
RightHandThumb1 -24.326973 -0.000000 -32.862282
LeftUpLeg -3.781997 -10.703101 -0.643681
LeftLeg 0.667322 -0.000000 -0.000000
LeftFoot -12.563265 10.060475 -24.235209
LeftToeBase 8.750018 -0.000000 -0.000000
RightUpLeg 4.163818 -14.445825 -3.442163
RightLeg -4.001566 -0.000000 0.000000
RightFoot -17.876107 -20.565213 11.860864
RightToeBase 5.365477 -0.000000 -0.000000
1713
root -1.472672 31.925266 -5.814449 8.389603 24.736315 5.592121
Spine -7.679520 -2.811640 -3.797622
Head 2.429826 -15.667583 -2.019158
LeftShoulder -10.194115 14.488673 7.310079
LeftArm 26.291548 42.690998 -71.325070
LeftForeArm -2.860284 0.000000 12.041889
LeftHand -11.281777 0.000000 -7.607583
LeftHandThumb1 -26.253704 0.000000 33.147579
RightShoulder -6.712531 37.962821 -50.105034
RightArm 86.684708 48.181894 119.197659
RightForeArm 36.657007 0.000000 114.240248
RightHand 0.083367 -0.000000 10.320443
RightHandThumb1 -24.326973 -0.000000 -32.862282
LeftUpLeg -3.790855 -10.678277 -0.625187
LeftLeg 0.665690 -0.000000 -0.000000
LeftFoot -12.575751 10.112123 -24.199087
LeftToeBase 8.689881 -0.000000 -0.000000
RightUpLeg 4.143005 -14.438285 -3.425972
RightLeg -4.014348 -0.000000 0.000000
RightFoot -17.845224 -20.498970 11.836419
RightToeBase 5.319567 -0.000000 -0.000000
1714
root -1.476546 31.924515 -5.813228 8.393581 24.665054 5.571486
Spine -7.705874 -2.748550 -3.795515
Head 2.426432 -15.765830 -1.992935
LeftShoulder -10.208838 14.520740 7.308293
LeftArm 26.290308 42.648559 -71.352128
LeftForeArm -2.888971 -0.000000 12.085640
LeftHand -11.289875 -0.000000 -7.515447
LeftHandThumb1 -26.253704 0.000000 33.147579
RightShoulder -6.676354 37.919227 -50.085366
RightArm 86.567342 48.174936 118.959687
RightForeArm 36.546896 -0.000000 114.396392
RightHand 0.047836 -0.000000 10.424579
RightHandThumb1 -24.326973 -0.000000 -32.862282
LeftUpLeg -3.794324 -10.692555 -0.605628
LeftLeg 0.658759 -0.000000 -0.000000
LeftFoot -12.619643 10.200340 -24.195568
LeftToeBase 8.674562 -0.000000 -0.000000
RightUpLeg 4.122958 -14.457425 -3.408521
RightLeg -4.028155 -0.000000 0.000000
RightFoot -17.807577 -20.420635 11.790673
RightToeBase 5.317560 -0.000000 -0.000000
1715
root -1.481466 31.924299 -5.813211 8.405825 24.604565 5.551949
Spine -7.727740 -2.700408 -3.801710
Head 2.394360 -15.838929 -1.936147
LeftShoulder -10.238550 14.532094 7.313335
LeftArm 26.272678 42.603602 -71.399382
LeftForeArm -2.870955 -0.000000 12.127927
LeftHand -11.334671 -0.000000 -7.505716
LeftHandThumb1 -26.253704 0.000000 33.147579
RightShoulder -6.657662 37.847695 -50.054754
RightArm 86.511427 48.149030 118.767565
RightForeArm 36.574109 -0.000000 114.519775
RightHand 0.096281 -0.000000 10.544125
RightHandThumb1 -24.326973 -0.000000 -32.862282
LeftUpLeg -3.812473 -10.706138 -0.582199
LeftLeg 0.660039 -0.000000 -0.000000
LeftFoot -12.668752 10.263509 -24.235117
LeftToeBase 8.627727 -0.000000 -0.000000
RightUpLeg 4.094889 -14.456493 -3.386337
RightLeg -4.043544 -0.000000 0.000000
RightFoot -17.777715 -20.370797 11.764225
RightToeBase 5.285580 -0.000000 -0.000000
